Patient4_TMGait_0pt4_02_right_07_EMG.mot
version=1
nRows=30
nColumns=33
inDegrees=no
endheader
time	1LAddLong	2LGlutMax	3LGlutMed	4LIliopsoas	5LSemiMemb	6LBicFemLong	7LRecFem	8LVastMed	9LVastLat	10LGasMed	11LTibAnt	12lTibPost	13LPeroneusLong	14LSol	15LExtDigLong	16LFlexDigLong	17RAddLong	18RGlutMax	19RGlutMed	20RIliopsoas	21RSemiMemb	22RBicFemLong	23RRecFem	24RVastMed	25RVastLat	26RGasMed	27RTibAnt	28RTibPost	29RPeroneusLong	30RSol	31RExtDigLong	32RFlexDigLong
9.217	-0.002441	0.043335	-0.000916	-0.009003	0.012512	-0.034027	0.22324	0.00824	0.15045	0.019989	0.057831	-0.004883	-0.054932	0.038605	-0.11612	0.010071	0.010071	-2.0285	-1.3098	-0.004272	-0.22553	0.16266	0.43976	0.11948	0.44632	-0.042877	0.024719	0.21973	-0.45593	-0.048065	-0.003204	-0.017548
9.218	-0.000916	0.056915	-0.028534	-0.007019	-0.006104	-0.034637	0.14542	0.003967	0.15091	-0.002136	0.083313	0.003357	-0.065918	0.019989	-0.040436	0.016327	-0.103	-2.1881	-1.2965	0.014343	-0.42343	0.22812	0.36362	0.28305	0.31082	-0.034943	0.032501	0.15182	-0.43213	-0.13641	-0.004272	-0.020905
9.219	-0.004425	0.056305	-0.069733	0.006714	-0.001373	-0.039673	0.091705	0.009155	0.14587	-0.046387	0.13092	0.009155	-0.004578	0.0354	0.46356	0.016632	-0.12528	-2.1617	-0.87158	0.007629	-0.54382	0.13229	0.31403	0.070343	0.091553	-0.066071	0.031128	-0.039978	0.23941	-0.45075	-0.004272	-0.022888
9.22	-0.009613	0.093384	-0.10208	0.014191	0.003357	-0.051727	0.009766	0.006256	0.10696	-0.040283	0.21729	0.009155	-0.059204	0.041046	0.85846	0.031128	-0.030975	-2.1538	-0.97015	0.021057	-0.33142	0.037537	0.25482	-0.064545	-0.13062	-0.064697	0.052185	0.004272	0.13794	-0.20508	-0.004272	-0.026703
9.221	-0.009613	0.045624	-0.13229	0.007935	-0.036316	-0.036926	-0.11108	0.013885	0.079346	-0.014954	0.28931	0.002594	-0.085449	0.052795	0.6839	0.019684	-0.003815	-2.1118	-0.66132	-0.072632	-0.15411	0.13016	-0.009003	-0.042572	-0.28122	-0.020142	0.08728	-0.031281	0.36026	0.079956	-0.002899	-0.022888
9.222	-0.003967	0.10376	-0.15762	0.008698	0.013885	-0.032654	-0.094757	0.02121	0.071564	-0.02533	-0.18692	0.002136	-0.075226	0.14404	1.4342	0.007782	-0.045624	-1.982	-0.14557	-0.11353	0.11627	0.18082	-0.11566	-0.002747	-0.4895	0.024109	0.11383	0.072174	0.11795	-0.39993	0.002441	-0.019989
9.223	-0.00061	0.10498	-0.18509	-0.015717	0.023956	-0.065613	-0.0354	0.019989	0.066528	-0.03479	-0.40268	0.011902	-0.088348	0.2713	-0.51697	-0.00412	-0.09552	-1.9502	-0.21606	-0.13657	0.19775	0.22537	-0.025482	0.016022	-0.4628	0.018463	0.063019	0.12787	-0.2359	-0.5481	-0.002441	-0.025177
9.224	0.001373	0.063629	-0.21561	-0.000916	0.011139	-0.034485	0.083771	0.012665	0.079498	-0.059052	-0.15961	0.009766	0.025024	0.24124	-0.53925	-0.018005	-0.051422	-1.8178	-0.64392	-0.062866	0.3212	0.19867	0.004883	0.085449	-0.17456	0.024719	-0.023041	0.1178	-0.083313	-0.1062	0.006714	-0.019989
9.225	0.00061	0.035248	-0.23819	-0.005798	-0.009613	-0.024872	0.15228	0.014038	0.072937	-0.045624	-0.22949	0.016327	0.090485	0.1059	-1.2027	-0.014496	-0.011902	-1.6006	-1.1118	-0.037231	0.22492	0.11002	-0.013123	0.067596	-0.085297	0.006866	-0.002136	-0.27969	0.23132	0.069885	-0.001526	-0.015259
9.226	0	0.037384	-0.26215	0.00946	-0.005798	-0.022888	0.15396	0.00412	0.07843	-0.001526	-0.19196	0.00473	-0.031586	-0.018463	-0.83832	-0.023041	-0.00824	-1.4122	-0.95688	-0.075989	0.088654	0.049133	-0.013275	0.060425	-0.032196	-0.020752	-0.015259	-0.13046	0.28046	0.09964	-0.003815	-0.005341
9.227	0.000153	0.035248	-0.30563	0.032196	0.000916	-0.023346	0.20889	0.002899	0.058594	0.014038	-0.050812	0.006409	-0.041504	-0.077515	-0.81711	-0.014343	-0.036316	-1.1063	-1.0027	-0.021515	0.014801	0.065002	-0.01358	0.075836	-0.065155	0.01236	-0.028687	0.016785	0.30075	0.33188	-0.003815	-0.003662
9.228	0.002899	0.036316	-0.33188	0.024567	0.007324	-0.024719	0.29282	0.010376	0.052643	0.006409	-0.10086	0.017242	0.014343	-0.026855	-0.49774	-0.03479	-0.005798	-0.8316	-0.12436	-0.024109	-0.03418	0.086517	-0.048065	0.019226	-0.11322	0.017395	0.013885	0.083466	0.37323	0.33814	-0.002441	-0.009003
9.229	-0.001068	0.045624	-0.38544	0.004425	0.009613	0.010071	0.31662	0.00885	0.041351	0.00824	-0.17548	0.011139	0.019836	-0.085449	-0.2388	-0.025024	0.020905	-0.5481	0.78171	0.07431	-0.025024	0.11063	-0.050964	0.001984	-0.072021	0.000153	0.031128	0.16083	0.31067	0.098419	-0.00351	-0.014801
9.23	0.004425	0.029449	-0.42343	-0.025024	0.003662	-0.007019	0.33279	0.005798	0.040131	0.016174	-0.043335	0.001984	-0.046234	-0.093231	-0.076447	-0.010986	0.024414	-0.2536	0.36972	-0.065918	0.045166	0.10376	-0.013428	0.015869	-0.065308	0.001068	0.030212	0.027008	0.12573	0.35797	0.000305	-0.010681
9.231	0.002747	0.019836	-0.42648	0.023804	0.002289	-0.022583	0.21652	0.009155	0.026398	0.031738	0.084686	0.003815	-0.14053	-0.071411	-0.001373	-0.007629	0.030823	-0.074615	0.2066	-0.13657	0.058899	0.07431	-0.062561	-0.019989	-0.1471	0.03479	0.001831	-0.048676	0.11231	0.50079	0.000763	-0.011292
9.232	0.003052	-0.006561	-0.40314	-0.007324	-0.013123	-0.011139	0.065155	0.005646	0.030823	0.029449	0.10086	0.000458	-0.14908	-0.1535	0.042114	-0.000458	0.027924	0.10208	-0.52231	-0.061646	-0.038605	0.083618	-0.000153	-0.004425	-0.16312	0.044861	0.001526	-0.032501	-0.12604	0.55924	-0.003967	-0.000305
9.233	-0.01297	0.011902	-0.3743	-0.018005	-0.004272	-0.028839	-0.029907	-0.00351	0.025635	0.047455	0.036316	0.003052	-0.10727	-0.20798	0.2829	-0.000305	-0.007629	0.41428	-0.29526	0.018005	-0.18188	0.16968	-0.037689	-0.046539	-0.08316	-0.00061	0.031586	0.034332	-0.20111	-0.054016	-0.006104	-0.005493
9.234	-0.002747	0.040283	-0.31708	-0.018005	-0.000153	0.004272	-0.09201	-0.008087	0.020752	0.02121	0.051117	0.003967	-0.064087	-0.079803	0.29114	0.008545	-0.023041	0.7962	0.034332	0.17716	-0.21942	0.16647	-0.1651	-0.015717	0.177	-0.059509	0.007782	0.030518	-0.32593	-0.29678	0	-0.004883
9.235	0.014343	-0.023193	-0.31235	-0.013428	-0.004578	0.002747	-0.16281	-0.005341	0.029144	0.000458	0.074921	0.003204	-0.00351	-0.070801	0.17212	-0.007477	-0.024719	0.88425	-0.25604	0.29114	0.075684	0.10193	-0.19638	-0.098724	0.22659	-0.092468	-0.012817	-0.16724	-0.2829	-0.26047	-0.002136	-0.004272
9.236	0.014496	-0.04837	-0.29511	0.016174	0.006409	0.004272	-0.17532	-0.004883	0.037079	0.013275	0.00351	0.001068	-0.010986	-0.091858	0.10269	-0.003357	-0.00824	0.86548	-0.29297	0.081024	0.159	0.096283	-0.20035	-0.065613	0.26489	-0.064087	-0.00473	-0.42954	-0.080414	-0.33386	-0.000763	-0.011902
9.237	0.013123	-0.093079	-0.31372	0.048218	-0.001831	-0.010071	-0.12192	0.00061	0.037537	0.019531	-0.023651	0.005188	-0.032349	0.015411	0.11353	-0.015564	-0.007019	0.92651	0.17792	-0.035095	0.16983	0.062561	-0.41794	-0.001678	0.30716	-0.018158	0.003204	0.048523	0.13046	-0.47089	-0.007935	-0.015106
9.238	0.006409	-0.12375	-0.32349	0.04364	0.001831	-0.002747	0.036011	0.003052	0.040131	0.013275	0.070953	0.010223	-0.063934	0.088654	0.13931	-0.00412	0.012054	0.94696	0.72952	-0.045471	0.12848	0.079498	-0.40802	-0.14374	0.26886	-0.018311	0.039673	0.41351	0.097046	-0.32516	-0.005798	-0.021057
9.239	0.009003	-0.17593	-0.31662	0.00351	0	-0.001373	0.087585	0.000305	0.009003	0.016632	0.075378	0.004883	-0.08606	0.003967	0.32013	-0.010529	0.019684	0.88043	0.31097	0.010681	0.040894	0.10712	-0.35614	-0.17868	0.061188	0.000153	0.049591	0.21103	0.075226	-0.14801	-0.006256	-0.023499
9.24	0.008087	-0.19409	-0.2533	-0.010681	0.007477	-0.007019	0.12695	0.006561	0.001984	0.006561	0.069885	0.005188	-0.084076	-0.039368	0.32471	-0.006866	0.011139	0.92178	-0.18204	0.041351	-0.079956	0.076904	-0.17716	0.10849	-0.39825	0.016632	0.048065	0.10056	0.031891	-0.73242	-0.002441	-0.023041
9.241	0.016479	-0.25101	-0.2359	-0.02594	-0.001526	0.000305	0.18677	0.009918	0.038757	0.007935	-0.006714	0.004272	-0.055084	-0.010223	0.22049	-0.002289	0.033875	0.79529	-0.35996	-0.058289	0.020447	-0.00946	-0.010071	0.18402	-0.28519	0.036469	0.067749	0.033722	0.074768	-0.11749	0.002594	-0.025635
9.242	0.010529	-0.31525	-0.23025	-0.005951	0.001373	0.003815	0.21271	0.007324	0.035248	0.012207	-0.012665	0.002594	-0.054932	0.06546	0.14465	-0.016937	0.034332	0.74112	-0.47897	-0.084839	0.031586	-0.088043	-0.018005	0.13718	-0.14755	0.026703	0.089874	-0.021667	0.21271	0.68787	0.000305	-0.030212
9.243	0.019531	-0.4364	-0.23254	-0.005188	0.005188	-0.010529	0.19791	0.003357	0.045471	0.023804	-0.007019	0.001068	-0.066223	0.046234	0.09552	-0.018005	0.029755	0.58655	-0.65674	-0.094604	0.004272	-0.021973	-0.019684	0.036774	-0.070953	0.003357	0.11551	0.007782	0.00885	0.15732	0.002136	-0.033722
9.244	0.010834	-0.49789	-0.23148	-0.007782	0.006104	-0.012817	0.18509	0.008392	0.04425	0.031433	0.038605	0.003052	-0.088196	0.026245	0.02533	-0.018158	0.006409	0.51621	-0.79575	-0.027313	-0.062256	0.021362	-0.036774	0.033875	-0.037842	-0.003357	0.10101	0.022888	-0.008545	-0.51056	-0.00412	-0.030518
9.245	0.005035	-0.58548	-0.17578	-0.022583	-0.006256	-0.014648	0.21255	0.001373	0.067596	0.008087	0.091705	0.001373	-0.064697	0.069275	-0.024261	-0.003357	0.026093	0.55405	-0.44296	0.005493	0.063477	0.072174	0.025482	-0.063019	-0.022583	-0.032654	0.091705	-0.011902	0.098572	-0.75867	-0.000916	-0.030975
9.246	0.013428	-0.63019	-0.13031	-0.021362	-0.018616	-0.027771	0.25894	0.001831	0.063782	-0.001221	0.0914	0.003052	-0.086517	0.10666	0.84427	0.000763	0.048828	0.62607	-0.071411	0.032501	0.091095	0.11414	0.022583	-0.084686	-0.023499	-0.062103	0.092163	-0.075226	-0.023804	-0.65201	-0.002441	-0.023041
